<svg width="120" height="14" viewBox="0 0 120 14" fill="none" xmlns="http://www.w3.org/2000/svg" id="mobile" role="img">
<g id="Wordmark Light">
<g id="Group 3">
<mask id="mask0_8390_77409" style="mask-type:luminance" maskUnits="userSpaceOnUse" x="56" y="0" width="19" height="14">
<path id="Clip 2" fill-rule="evenodd" clip-rule="evenodd" d="M56.5703 0.0751953H74.1557V13.9997H56.5703V0.0751953Z" fill="white"/>
</mask>
<g mask="url(#mask0_8390_77409)">
<path id="Fill 1" fill-rule="evenodd" clip-rule="evenodd" d="M69.7286 5.67839H61.3603C60.982 5.67839 60.5577 5.64769 60.3599 5.59365C59.6192 5.39176 59.2646 4.74702 59.2646 4.08435C59.2646 3.51305 59.5793 2.82239 60.3763 2.5812C60.6152 2.50898 60.8443 2.50505 61.3295 2.50505H73.2023V0.0751953H61.1334C60.6585 0.0751953 60.2765 0.090669 59.9359 0.137581C57.985 0.408002 56.5703 2.02709 56.5703 4.09025C56.5703 5.93358 57.7666 7.75481 59.8877 8.066C60.3521 8.13428 61.0603 8.122 61.252 8.122H69.3616C69.4772 8.122 69.8866 8.12962 69.9913 8.14435C70.9579 8.28018 71.4568 9.01727 71.4568 9.84523C71.4568 10.5396 71.0293 11.3371 70.0734 11.5088C69.9514 11.5306 69.5213 11.5424 69.3819 11.5424H56.978V13.9998H69.578C69.7299 13.9998 70.4263 13.9932 70.5698 13.9801C72.926 13.7667 74.1557 11.8514 74.1557 9.82411C74.1557 8.03825 73.0362 5.94758 70.7652 5.72211C70.2859 5.67446 69.8957 5.67839 69.7286 5.67839Z" fill="black"/>
</g>
</g>
<g id="Group 6">
<mask id="mask1_8390_77409" style="mask-type:luminance" maskUnits="userSpaceOnUse" x="32" y="0" width="19" height="14">
<path id="Clip 5" fill-rule="evenodd" clip-rule="evenodd" d="M32.7832 0.0751953H50.3686V13.9997H32.7832V0.0751953Z" fill="white"/>
</mask>
<g mask="url(#mask1_8390_77409)">
<path id="Fill 4" fill-rule="evenodd" clip-rule="evenodd" d="M45.9415 5.67839H37.5734C37.1951 5.67839 36.7706 5.64769 36.5728 5.59365C35.8321 5.39176 35.4778 4.74702 35.4778 4.08435C35.4778 3.51305 35.7922 2.82239 36.5892 2.5812C36.8281 2.50898 37.0572 2.50505 37.5424 2.50505H49.4152V0.0751953H37.3463C36.8714 0.0751953 36.4894 0.090669 36.1488 0.137581C34.1979 0.408002 32.7832 2.02709 32.7832 4.09025C32.7832 5.93358 33.9795 7.75481 36.1006 8.066C36.5652 8.13428 37.2732 8.122 37.4649 8.122H45.5747C45.6901 8.122 46.0997 8.12962 46.2044 8.14435C47.1711 8.28018 47.6697 9.01727 47.6697 9.84523C47.6697 10.5396 47.2422 11.3371 46.2863 11.5088C46.1643 11.5306 45.7342 11.5424 45.5948 11.5424H33.1908V13.9998H45.7909C45.9427 13.9998 46.6392 13.9932 46.7827 13.9801C49.1389 13.7667 50.3686 11.8514 50.3686 9.82411C50.3686 8.03825 49.2494 5.94758 46.9781 5.72211C46.4991 5.67446 46.1085 5.67839 45.9415 5.67839Z" fill="black"/>
</g>
</g>
<mask id="mask2_8390_77409" style="mask-type:luminance" maskUnits="userSpaceOnUse" x="0" y="0" width="120" height="14">
<path id="Clip 8" fill-rule="evenodd" clip-rule="evenodd" d="M0 14H120V0H0V14Z" fill="white"/>
</mask>
<g mask="url(#mask2_8390_77409)">
<path id="Fill 7" fill-rule="evenodd" clip-rule="evenodd" d="M23.8018 14H26.777V0H23.8018V14Z" fill="black"/>
<path id="Fill 9" fill-rule="evenodd" clip-rule="evenodd" d="M14.2665 11.1867L3.62415 0H0V14H2.59326V2.73994L13.3083 14H16.8595V0H14.2665V11.1867Z" fill="black"/>
<path id="Fill 10" fill-rule="evenodd" clip-rule="evenodd" d="M117.407 11.1867L106.765 0H103.141V14H105.734V2.73994L116.449 14H120V0H117.407V11.1867Z" fill="black"/>
<path id="Fill 11" fill-rule="evenodd" clip-rule="evenodd" d="M84.3348 9.17981L88.2668 2.60158L92.1928 9.17981H84.3348ZM86.7409 0L78.3467 14H81.5048L83.052 11.4081H93.4779L95.0273 14H98.1814L89.79 0H86.7409Z" fill="black"/>
</g>
</g>
</svg>
